<svg width="1727" height="1727" viewBox="0 0 1727 1727" fill="none" xmlns="http://www.w3.org/2000/svg">
<rect width="1727" height="1727" rx="225" fill="white"/>
<mask id="path-2-outside-1_7467_14423" maskUnits="userSpaceOnUse" x="268" y="762" width="674" height="218" fill="black">
<rect fill="white" x="268" y="762" width="674" height="218"/>
<path d="M378 975L334.2 895.5H321.9V975H270.6V764.4H356.7C373.3 764.4 387.4 767.3 399 773.1C410.8 778.9 419.6 786.9 425.4 797.1C431.2 807.1 434.1 818.3 434.1 830.7C434.1 844.7 430.1 857.2 422.1 868.2C414.3 879.2 402.7 887 387.3 891.6L435.9 975H378ZM321.9 859.2H353.7C363.1 859.2 370.1 856.9 374.7 852.3C379.5 847.7 381.9 841.2 381.9 832.8C381.9 824.8 379.5 818.5 374.7 813.9C370.1 809.3 363.1 807 353.7 807H321.9V859.2ZM542.503 977.4C526.103 977.4 511.303 973.9 498.103 966.9C485.103 959.9 474.803 949.9 467.203 936.9C459.803 923.9 456.103 908.7 456.103 891.3C456.103 874.1 459.903 859 467.503 846C475.103 832.8 485.503 822.7 498.703 815.7C511.903 808.7 526.703 805.2 543.103 805.2C559.503 805.2 574.303 808.7 587.503 815.7C600.703 822.7 611.103 832.8 618.703 846C626.303 859 630.103 874.1 630.103 891.3C630.103 908.5 626.203 923.7 618.403 936.9C610.803 949.9 600.303 959.9 586.903 966.9C573.703 973.9 558.903 977.4 542.503 977.4ZM542.503 933C552.303 933 560.603 929.4 567.403 922.2C574.403 915 577.903 904.7 577.903 891.3C577.903 877.9 574.503 867.6 567.703 860.4C561.103 853.2 552.903 849.6 543.103 849.6C533.103 849.6 524.803 853.2 518.203 860.4C511.603 867.4 508.303 877.7 508.303 891.3C508.303 904.7 511.503 915 517.903 922.2C524.503 929.4 532.703 933 542.503 933ZM870.919 805.8C891.719 805.8 908.219 812.1 920.419 824.7C932.819 837.3 939.019 854.8 939.019 877.2V975H888.019V884.1C888.019 873.3 885.119 865 879.319 859.2C873.719 853.2 865.919 850.2 855.919 850.2C845.919 850.2 838.019 853.2 832.219 859.2C826.619 865 823.819 873.3 823.819 884.1V975H772.819V884.1C772.819 873.3 769.919 865 764.119 859.2C758.519 853.2 750.719 850.2 740.719 850.2C730.719 850.2 722.819 853.2 717.019 859.2C711.419 865 708.619 873.3 708.619 884.1V975H657.319V807.6H708.619V828.6C713.819 821.6 720.619 816.1 729.019 812.1C737.419 807.9 746.919 805.8 757.519 805.8C770.119 805.8 781.319 808.5 791.119 813.9C801.119 819.3 808.919 827 814.519 837C820.319 827.8 828.219 820.3 838.219 814.5C848.219 808.7 859.119 805.8 870.919 805.8Z"/>
</mask>
<path d="M378 975L334.2 895.5H321.9V975H270.6V764.4H356.7C373.3 764.4 387.4 767.3 399 773.1C410.8 778.9 419.6 786.9 425.4 797.1C431.2 807.1 434.1 818.3 434.1 830.7C434.1 844.7 430.1 857.2 422.1 868.2C414.3 879.2 402.7 887 387.3 891.6L435.9 975H378ZM321.9 859.2H353.7C363.1 859.2 370.1 856.9 374.7 852.3C379.5 847.7 381.9 841.2 381.9 832.8C381.9 824.8 379.5 818.5 374.7 813.9C370.1 809.3 363.1 807 353.7 807H321.9V859.2ZM542.503 977.4C526.103 977.4 511.303 973.9 498.103 966.9C485.103 959.9 474.803 949.9 467.203 936.9C459.803 923.9 456.103 908.7 456.103 891.3C456.103 874.1 459.903 859 467.503 846C475.103 832.8 485.503 822.7 498.703 815.7C511.903 808.7 526.703 805.2 543.103 805.2C559.503 805.2 574.303 808.7 587.503 815.7C600.703 822.7 611.103 832.8 618.703 846C626.303 859 630.103 874.1 630.103 891.3C630.103 908.5 626.203 923.7 618.403 936.9C610.803 949.9 600.303 959.9 586.903 966.9C573.703 973.9 558.903 977.4 542.503 977.4ZM542.503 933C552.303 933 560.603 929.4 567.403 922.2C574.403 915 577.903 904.7 577.903 891.3C577.903 877.9 574.503 867.6 567.703 860.4C561.103 853.2 552.903 849.6 543.103 849.6C533.103 849.6 524.803 853.2 518.203 860.4C511.603 867.4 508.303 877.7 508.303 891.3C508.303 904.7 511.503 915 517.903 922.2C524.503 929.4 532.703 933 542.503 933ZM870.919 805.8C891.719 805.8 908.219 812.1 920.419 824.7C932.819 837.3 939.019 854.8 939.019 877.2V975H888.019V884.1C888.019 873.3 885.119 865 879.319 859.2C873.719 853.2 865.919 850.2 855.919 850.2C845.919 850.2 838.019 853.2 832.219 859.2C826.619 865 823.819 873.3 823.819 884.1V975H772.819V884.1C772.819 873.3 769.919 865 764.119 859.2C758.519 853.2 750.719 850.2 740.719 850.2C730.719 850.2 722.819 853.2 717.019 859.2C711.419 865 708.619 873.3 708.619 884.1V975H657.319V807.6H708.619V828.6C713.819 821.6 720.619 816.1 729.019 812.1C737.419 807.9 746.919 805.8 757.519 805.8C770.119 805.8 781.319 808.5 791.119 813.9C801.119 819.3 808.919 827 814.519 837C820.319 827.8 828.219 820.3 838.219 814.5C848.219 808.7 859.119 805.8 870.919 805.8Z" fill="#0077FF"/>
<path d="M378 975L376.248 975.965L376.818 977H378V975ZM334.2 895.5L335.952 894.535L335.382 893.5H334.2V895.5ZM321.9 895.5V893.5H319.9V895.5H321.9ZM321.9 975V977H323.9V975H321.9ZM270.6 975H268.6V977H270.6V975ZM270.6 764.4V762.4H268.6V764.4H270.6ZM399 773.1L398.106 774.889L398.118 774.895L399 773.1ZM425.4 797.1L423.661 798.089L423.666 798.096L423.67 798.103L425.4 797.1ZM422.1 868.2L420.483 867.024L420.475 867.033L420.469 867.043L422.1 868.2ZM387.3 891.6L386.728 889.684L384.292 890.411L385.572 892.607L387.3 891.6ZM435.9 975V977H439.38L437.628 973.993L435.9 975ZM321.9 859.2H319.9V861.2H321.9V859.2ZM374.7 852.3L373.316 850.856L373.301 850.871L373.286 850.886L374.7 852.3ZM374.7 813.9L373.286 815.314L373.301 815.329L373.316 815.344L374.7 813.9ZM321.9 807V805H319.9V807H321.9ZM379.752 974.035L335.952 894.535L332.448 896.465L376.248 975.965L379.752 974.035ZM334.2 893.5H321.9V897.5H334.2V893.5ZM319.9 895.5V975H323.9V895.5H319.9ZM321.9 973H270.6V977H321.9V973ZM272.6 975V764.4H268.6V975H272.6ZM270.6 766.4H356.7V762.4H270.6V766.4ZM356.7 766.4C373.074 766.4 386.85 769.261 398.106 774.889L399.894 771.311C387.95 765.339 373.526 762.4 356.7 762.4V766.4ZM398.118 774.895C409.603 780.54 418.083 788.278 423.661 798.089L427.139 796.111C421.117 785.522 411.997 777.26 399.882 771.305L398.118 774.895ZM423.67 798.103C429.28 807.776 432.1 818.626 432.1 830.7H436.1C436.1 817.974 433.12 806.424 427.13 796.097L423.67 798.103ZM432.1 830.7C432.1 844.291 428.226 856.376 420.483 867.024L423.717 869.376C431.974 858.024 436.1 845.109 436.1 830.7H432.1ZM420.469 867.043C412.974 877.612 401.785 885.186 386.728 889.684L387.872 893.516C403.615 888.814 415.626 880.787 423.731 869.357L420.469 867.043ZM385.572 892.607L434.172 976.007L437.628 973.993L389.028 890.593L385.572 892.607ZM435.9 973H378V977H435.9V973ZM321.9 861.2H353.7V857.2H321.9V861.2ZM353.7 861.2C363.394 861.2 371 858.829 376.114 853.714L373.286 850.886C369.2 854.971 362.806 857.2 353.7 857.2V861.2ZM376.084 853.744C381.375 848.673 383.9 841.593 383.9 832.8H379.9C379.9 840.807 377.625 846.727 373.316 850.856L376.084 853.744ZM383.9 832.8C383.9 824.374 381.356 817.509 376.084 812.456L373.316 815.344C377.644 819.491 379.9 825.226 379.9 832.8H383.9ZM376.114 812.486C371 807.371 363.394 805 353.7 805V809C362.806 809 369.2 811.229 373.286 815.314L376.114 812.486ZM353.7 805H321.9V809H353.7V805ZM319.9 807V859.2H323.9V807H319.9ZM498.103 966.9L497.155 968.661L497.166 968.667L498.103 966.9ZM467.203 936.9L465.465 937.889L465.471 937.899L465.477 937.909L467.203 936.9ZM467.503 846L469.23 847.009L469.236 846.998L467.503 846ZM498.703 815.7L499.64 817.467L498.703 815.7ZM587.503 815.7L586.566 817.467L587.503 815.7ZM618.703 846L616.97 846.998L616.977 847.009L618.703 846ZM618.403 936.9L616.681 935.883L616.677 935.891L618.403 936.9ZM586.903 966.9L585.977 965.127L585.966 965.133L586.903 966.9ZM567.403 922.2L565.969 920.806L565.959 920.816L565.949 920.827L567.403 922.2ZM567.703 860.4L566.229 861.751L566.239 861.762L566.249 861.773L567.703 860.4ZM518.203 860.4L519.658 861.772L519.668 861.762L519.677 861.751L518.203 860.4ZM517.903 922.2L516.408 923.529L516.418 923.54L516.429 923.551L517.903 922.2ZM542.503 975.4C526.397 975.4 511.924 971.965 499.04 965.133L497.166 968.667C510.682 975.835 525.809 979.4 542.503 979.4V975.4ZM499.051 965.139C486.382 958.317 476.348 948.58 468.93 935.891L465.477 937.909C473.258 951.22 483.825 961.483 497.155 968.661L499.051 965.139ZM468.941 935.911C461.739 923.258 458.103 908.41 458.103 891.3H454.103C454.103 908.99 457.867 924.542 465.465 937.889L468.941 935.911ZM458.103 891.3C458.103 874.403 461.833 859.662 469.23 847.009L465.777 844.991C457.973 858.338 454.103 873.797 454.103 891.3H458.103ZM469.236 846.998C476.652 834.117 486.779 824.287 499.64 817.467L497.766 813.933C484.227 821.113 473.554 831.483 465.77 845.002L469.236 846.998ZM499.64 817.467C512.524 810.635 526.997 807.2 543.103 807.2V803.2C526.409 803.2 511.282 806.765 497.766 813.933L499.64 817.467ZM543.103 807.2C559.209 807.2 573.682 810.635 586.566 817.467L588.44 813.933C574.924 806.765 559.797 803.2 543.103 803.2V807.2ZM586.566 817.467C599.427 824.287 609.554 834.117 616.97 846.998L620.436 845.002C612.652 831.483 601.979 821.113 588.44 813.933L586.566 817.467ZM616.977 847.009C624.373 859.662 628.103 874.403 628.103 891.3H632.103C632.103 873.797 628.233 858.338 620.43 844.991L616.977 847.009ZM628.103 891.3C628.103 908.187 624.278 923.027 616.681 935.883L620.125 937.917C628.129 924.373 632.103 908.813 632.103 891.3H628.103ZM616.677 935.891C609.267 948.565 599.045 958.301 585.977 965.127L587.829 968.673C601.561 961.499 612.339 951.235 620.13 937.909L616.677 935.891ZM585.966 965.133C573.082 971.965 558.609 975.4 542.503 975.4V979.4C559.197 979.4 574.324 975.835 587.84 968.667L585.966 965.133ZM542.503 935C552.86 935 561.684 931.168 568.857 923.573L565.949 920.827C559.522 927.632 551.746 931 542.503 931V935ZM568.837 923.594C576.308 915.91 579.903 905.042 579.903 891.3H575.903C575.903 904.358 572.498 914.09 565.969 920.806L568.837 923.594ZM579.903 891.3C579.903 877.573 576.416 866.713 569.157 859.027L566.249 861.773C572.59 868.487 575.903 878.227 575.903 891.3H579.903ZM569.177 859.049C562.197 851.434 553.462 847.6 543.103 847.6V851.6C552.345 851.6 560.009 854.966 566.229 861.751L569.177 859.049ZM543.103 847.6C532.558 847.6 523.718 851.424 516.729 859.049L519.677 861.751C525.888 854.976 533.649 851.6 543.103 851.6V847.6ZM516.748 859.028C509.676 866.529 506.303 877.401 506.303 891.3H510.303C510.303 877.999 513.53 868.271 519.658 861.772L516.748 859.028ZM506.303 891.3C506.303 904.998 509.575 915.841 516.408 923.529L519.398 920.871C513.431 914.159 510.303 904.402 510.303 891.3H506.303ZM516.429 923.551C523.409 931.166 532.145 935 542.503 935V931C533.262 931 525.597 927.634 519.377 920.849L516.429 923.551ZM920.419 824.7L918.982 826.091L918.988 826.097L918.993 826.103L920.419 824.7ZM939.019 975V977H941.019V975H939.019ZM888.019 975H886.019V977H888.019V975ZM879.319 859.2L877.857 860.565L877.88 860.59L877.905 860.614L879.319 859.2ZM832.219 859.2L830.781 857.81L830.78 857.811L832.219 859.2ZM823.819 975V977H825.819V975H823.819ZM772.819 975H770.819V977H772.819V975ZM764.119 859.2L762.657 860.565L762.68 860.59L762.705 860.614L764.119 859.2ZM717.019 859.2L715.581 857.81L715.58 857.811L717.019 859.2ZM708.619 975V977H710.619V975H708.619ZM657.319 975H655.319V977H657.319V975ZM657.319 807.6V805.6H655.319V807.6H657.319ZM708.619 807.6H710.619V805.6H708.619V807.6ZM708.619 828.6H706.619V834.646L710.224 829.793L708.619 828.6ZM729.019 812.1L729.879 813.906L729.896 813.897L729.913 813.889L729.019 812.1ZM791.119 813.9L790.154 815.652L790.161 815.656L790.168 815.66L791.119 813.9ZM814.519 837L812.774 837.977L814.417 840.912L816.211 838.067L814.519 837ZM870.919 807.8C891.286 807.8 907.228 813.952 918.982 826.091L921.856 823.309C909.209 810.248 892.152 803.8 870.919 803.8V807.8ZM918.993 826.103C930.933 838.236 937.019 855.178 937.019 877.2H941.019C941.019 854.422 934.704 836.364 921.844 823.297L918.993 826.103ZM937.019 877.2V975H941.019V877.2H937.019ZM939.019 973H888.019V977H939.019V973ZM890.019 975V884.1H886.019V975H890.019ZM890.019 884.1C890.019 872.944 887.016 864.068 880.733 857.786L877.905 860.614C883.222 865.932 886.019 873.656 886.019 884.1H890.019ZM880.781 857.835C874.722 851.344 866.343 848.2 855.919 848.2V852.2C865.495 852.2 872.716 855.056 877.857 860.565L880.781 857.835ZM855.919 848.2C845.492 848.2 837.031 851.344 830.781 857.81L833.657 860.59C839.006 855.056 846.345 852.2 855.919 852.2V848.2ZM830.78 857.811C824.711 864.096 821.819 872.962 821.819 884.1H825.819C825.819 873.638 828.526 865.904 833.658 860.589L830.78 857.811ZM821.819 884.1V975H825.819V884.1H821.819ZM823.819 973H772.819V977H823.819V973ZM774.819 975V884.1H770.819V975H774.819ZM774.819 884.1C774.819 872.944 771.816 864.068 765.533 857.786L762.705 860.614C768.022 865.932 770.819 873.656 770.819 884.1H774.819ZM765.581 857.835C759.522 851.344 751.143 848.2 740.719 848.2V852.2C750.295 852.2 757.516 855.056 762.657 860.565L765.581 857.835ZM740.719 848.2C730.292 848.2 721.831 851.344 715.581 857.81L718.457 860.59C723.806 855.056 731.145 852.2 740.719 852.2V848.2ZM715.58 857.811C709.512 864.096 706.619 872.962 706.619 884.1H710.619C710.619 873.638 713.326 865.904 718.458 860.589L715.58 857.811ZM706.619 884.1V975H710.619V884.1H706.619ZM708.619 973H657.319V977H708.619V973ZM659.319 975V807.6H655.319V975H659.319ZM657.319 809.6H708.619V805.6H657.319V809.6ZM706.619 807.6V828.6H710.619V807.6H706.619ZM710.224 829.793C715.216 823.072 721.753 817.775 729.879 813.906L728.159 810.294C719.484 814.425 712.421 820.128 707.013 827.407L710.224 829.793ZM729.913 813.889C738.002 809.845 747.189 807.8 757.519 807.8V803.8C746.649 803.8 736.836 805.955 728.124 810.311L729.913 813.889ZM757.519 807.8C769.824 807.8 780.685 810.434 790.154 815.652L792.084 812.148C781.953 806.566 770.413 803.8 757.519 803.8V807.8ZM790.168 815.66C799.832 820.878 807.357 828.305 812.774 837.977L816.264 836.023C810.48 825.695 802.406 817.722 792.069 812.14L790.168 815.66ZM816.211 838.067C821.827 829.157 829.484 821.878 839.222 816.23L837.215 812.77C826.954 818.722 818.81 826.443 812.827 835.933L816.211 838.067ZM839.222 816.23C848.911 810.611 859.464 807.8 870.919 807.8V803.8C858.774 803.8 847.527 806.789 837.215 812.77L839.222 816.23Z" fill="#0077FF" mask="url(#path-2-outside-1_7467_14423)"/>
<rect x="967" y="632" width="509" height="386" rx="30" fill="#0077FF"/>
<path d="M991.4 891.3C991.4 873.9 994.9 858.7 1001.9 845.7C1009.1 832.7 1019 822.7 1031.6 815.7C1044.4 808.7 1059 805.2 1075.4 805.2C1096.4 805.2 1113.9 810.7 1127.9 821.7C1142.1 832.7 1151.4 848.2 1155.8 868.2H1101.2C1096.6 855.4 1087.7 849 1074.5 849C1065.1 849 1057.6 852.7 1052 860.1C1046.4 867.3 1043.6 877.7 1043.6 891.3C1043.6 904.9 1046.4 915.4 1052 922.8C1057.6 930 1065.1 933.6 1074.5 933.6C1087.7 933.6 1096.6 927.2 1101.2 914.4H1155.8C1151.4 934 1142.1 949.4 1127.9 960.6C1113.7 971.8 1096.2 977.4 1075.4 977.4C1059 977.4 1044.4 973.9 1031.6 966.9C1019 959.9 1009.1 949.9 1001.9 936.9C994.9 923.9 991.4 908.7 991.4 891.3ZM1286.14 805.8C1305.34 805.8 1320.74 812.2 1332.34 825C1343.94 837.6 1349.74 855 1349.74 877.2V975H1298.74V884.1C1298.74 872.9 1295.84 864.2 1290.04 858C1284.24 851.8 1276.44 848.7 1266.64 848.7C1256.84 848.7 1249.04 851.8 1243.24 858C1237.44 864.2 1234.54 872.9 1234.54 884.1V975H1183.24V753H1234.54V830.1C1239.74 822.7 1246.84 816.8 1255.84 812.4C1264.84 808 1274.94 805.8 1286.14 805.8ZM1411.19 790.2C1402.19 790.2 1394.79 787.6 1388.99 782.4C1383.39 777 1380.59 770.4 1380.59 762.6C1380.59 754.6 1383.39 748 1388.99 742.8C1394.79 737.4 1402.19 734.7 1411.19 734.7C1419.99 734.7 1427.19 737.4 1432.79 742.8C1438.59 748 1441.49 754.6 1441.49 762.6C1441.49 770.4 1438.59 777 1432.79 782.4C1427.19 787.6 1419.99 790.2 1411.19 790.2ZM1436.69 807.6V975H1385.39V807.6H1436.69Z" fill="white"/>
</svg>
